<svg width="48" height="48" viewBox="0 0 48 48" fill="none" xmlns="http://www.w3.org/2000/svg">
  <!-- Open Book -->
  <path d="M6 10C6 8.89543 6.89543 8 8 8H20C21.1046 8 22 8.89543 22 10V38C22 39.1046 21.1046 40 20 40H8C6.89543 40 6 39.1046 6 38V10Z" stroke="#4A5FD9" stroke-width="2" stroke-linecap="round" stroke-linejoin="round"/>
  <path d="M26 10C26 8.89543 26.8954 8 28 8H40C41.1046 8 42 8.89543 42 10V38C42 39.1046 41.1046 40 40 40H28C26.8954 40 26 39.1046 26 38V10Z" stroke="#4A5FD9" stroke-width="2" stroke-linecap="round" stroke-linejoin="round"/>
  <path d="M24 8V40" stroke="#4A5FD9" stroke-width="2" stroke-linecap="round"/>
  
  <!-- Graph/Chart Overlay -->
  <!-- Bar Chart -->
  <rect x="10" y="28" width="3" height="8" stroke="#4A5FD9" stroke-width="2" fill="none"/>
  <rect x="15" y="24" width="3" height="12" stroke="#4A5FD9" stroke-width="2" fill="none"/>
  
  <!-- Line Graph -->
  <circle cx="30" cy="30" r="1.5" fill="#4A5FD9"/>
  <circle cx="34" cy="24" r="1.5" fill="#4A5FD9"/>
  <circle cx="38" cy="20" r="1.5" fill="#4A5FD9"/>
  <path d="M30 30L34 24L38 20" stroke="#4A5FD9" stroke-width="2" stroke-linecap="round" stroke-linejoin="round"/>
</svg>
