<svg width="48" height="48" viewBox="0 0 48 48" fill="none" xmlns="http://www.w3.org/2000/svg">
  <!-- Heart -->
  <path d="M24 38C24 38 6 28 6 16C6 12.6863 8.68629 10 12 10C15.3137 10 18 12.6863 18 16C18 12.6863 20.6863 10 24 10C27.3137 10 30 12.6863 30 16C30 12.6863 32.6863 10 36 10C39.3137 10 42 12.6863 42 16C42 28 24 38 24 38Z" stroke="#FF6B9D" stroke-width="2" stroke-linecap="round" stroke-linejoin="round"/>
  
  <!-- Radiating Lines -->
  <line x1="24" y1="4" x2="24" y2="8" stroke="#FF6B9D" stroke-width="2" stroke-linecap="round"/>
  <line x1="24" y1="40" x2="24" y2="44" stroke="#FF6B9D" stroke-width="2" stroke-linecap="round"/>
  <line x1="4" y1="24" x2="8" y2="24" stroke="#FF6B9D" stroke-width="2" stroke-linecap="round"/>
  <line x1="40" y1="24" x2="44" y2="24" stroke="#FF6B9D" stroke-width="2" stroke-linecap="round"/>
  <line x1="8.5" y1="8.5" x2="11.5" y2="11.5" stroke="#FF6B9D" stroke-width="2" stroke-linecap="round"/>
  <line x1="36.5" y1="36.5" x2="39.5" y2="39.5" stroke="#FF6B9D" stroke-width="2" stroke-linecap="round"/>
  <line x1="39.5" y1="8.5" x2="36.5" y2="11.5" stroke="#FF6B9D" stroke-width="2" stroke-linecap="round"/>
  <line x1="11.5" y1="36.5" x2="8.5" y2="39.5" stroke="#FF6B9D" stroke-width="2" stroke-linecap="round"/>
</svg>
